<?xml version="1.0" encoding="UTF-8"?>
<!DOCTYPE svg PUBLIC "-//W3C//DTD SVG 1.1//EN" "http://www.w3.org/Graphics/SVG/1.1/DTD/svg11.dtd">
<svg xmlns="http://www.w3.org/2000/svg" version="1.1" width="450px" height="110px" style="shape-rendering:geometricPrecision; text-rendering:geometricPrecision; image-rendering:optimizeQuality; fill-rule:evenodd; clip-rule:evenodd" xmlns:xlink="http://www.w3.org/1999/xlink">
<g><path style="opacity:0.573" fill="#898989" d="M 41.5,5.5 C 42.5,5.5 43.5,5.5 44.5,5.5C 42.9807,10.6806 42.1474,16.0139 42,21.5C 41.5848,23.2909 40.5848,24.6243 39,25.5C 38.8939,18.7067 39.7273,12.04 41.5,5.5 Z"/></g>
<g><path style="opacity:0.012" fill="#9d9e9d" d="M 86.5,16.5 C 87.525,16.8966 87.6917,17.5632 87,18.5C 86.5357,17.9056 86.369,17.2389 86.5,16.5 Z"/></g>
<g><path style="opacity:0.063" fill="#cdcdcd" d="M 118.5,17.5 C 117.604,16.4937 116.938,16.4937 116.5,17.5C 115.115,16.6977 115.282,16.0311 117,15.5C 118.03,15.8361 118.53,16.5028 118.5,17.5 Z"/></g>
<g><path style="opacity:0.173" fill="#838383" d="M 64.5,7.5 C 65.9953,7.41483 66.9953,8.08149 67.5,9.5C 65.5116,15.4846 62.5116,20.818 58.5,25.5C 58.1667,25 57.8333,24.5 57.5,24C 60.5437,18.7934 62.8771,13.2934 64.5,7.5 Z"/></g>
<g><path style="opacity:0.647" fill="#959595" d="M 28.5,8.5 C 29.5,8.5 30.5,8.5 31.5,8.5C 32.5091,14.8507 33.3424,21.184 34,27.5C 32.4152,26.6243 31.4152,25.2909 31,23.5C 29.3638,18.6249 28.5305,13.6249 28.5,8.5 Z"/></g>
<g><path style="opacity:0.424" fill="#9f9f9f" d="M 53.5,7.5 C 54.5,7.5 55.5,7.5 56.5,7.5C 55.5763,13.2692 54.243,18.9359 52.5,24.5C 51.325,24.719 50.325,24.3857 49.5,23.5C 51.2591,18.2834 52.5925,12.9501 53.5,7.5 Z"/></g>
<g><path style="opacity:0.682" fill="#888888" d="M 145.5,11.5 C 146.586,11.62 147.253,12.2867 147.5,13.5C 146.142,19.5998 144.475,25.5998 142.5,31.5C 141.878,24.6381 142.878,17.9714 145.5,11.5 Z"/></g>
<g><path style="opacity:0.851" fill="#797979" d="M 26.5,29.5 C 26.6716,30.4916 26.3382,31.1583 25.5,31.5C 20.3875,26.9507 17.0542,21.284 15.5,14.5C 16.675,14.281 17.675,14.6143 18.5,15.5C 20.1688,20.8496 22.8354,25.5163 26.5,29.5 Z"/></g>
<g><path style="opacity:0.859" fill="#7e7e7e" d="M 160.5,14.5 C 161.497,14.4701 162.164,14.9701 162.5,16C 158.979,21.0508 156.312,26.5508 154.5,32.5C 153.876,25.7037 155.876,19.7037 160.5,14.5 Z"/></g>
<g><path style="opacity:0.831" fill="#6d6d6d" d="M 70.5,25.5 C 69.8333,25.5 69.5,25.8333 69.5,26.5C 67.7748,26.1575 67.2748,25.1575 68,23.5C 71.0155,20.3172 74.1822,17.3172 77.5,14.5C 77.8333,15 78.1667,15.5 78.5,16C 75.9926,19.3374 73.3259,22.5041 70.5,25.5 Z"/></g>
<g><path style="opacity:0.875" fill="#707070" d="M 175.5,17.5 C 176.5,17.5 177.5,17.5 178.5,17.5C 174.627,23.0463 169.961,28.0463 164.5,32.5C 163.592,31.21 163.759,29.8767 165,28.5C 168.704,24.9643 172.204,21.2976 175.5,17.5 Z"/></g>
<g><path style="opacity:0.282" fill="#bcbcbc" d="M 386.5,21.5 C 386.573,23.0269 385.906,24.0269 384.5,24.5C 384.427,22.9731 385.094,21.9731 386.5,21.5 Z"/></g>
<g><path style="opacity:0.224" fill="#b0b0b0" d="M 407.5,21.5 C 408.906,21.9731 409.573,22.9731 409.5,24.5C 408.094,24.0269 407.427,23.0269 407.5,21.5 Z"/></g>
<g><path style="opacity:0.831" fill="#606060" d="M 118.5,17.5 C 119.434,18.5676 119.768,19.901 119.5,21.5C 119.768,23.099 119.434,24.4324 118.5,25.5C 117.525,22.9333 116.858,20.2666 116.5,17.5C 116.938,16.4937 117.604,16.4937 118.5,17.5 Z"/></g>
<g><path style="opacity:1" fill="#f3f3f3" d="M 295.5,22.5 C 296.404,23.209 296.737,24.209 296.5,25.5C 295.861,26.0968 295.528,26.9302 295.5,28C 296.846,30.9688 297.513,33.8021 297.5,36.5C 296.761,36.369 296.094,36.5357 295.5,37C 296.21,39.9643 297.21,42.7976 298.5,45.5C 296.833,44.1667 295.167,44.1667 293.5,45.5C 291.278,45.822 289.444,45.1554 288,43.5C 287.487,44.5266 286.987,45.5266 286.5,46.5C 285.07,46.4208 283.736,46.7542 282.5,47.5C 281.749,46.624 281.249,45.624 281,44.5C 280.333,45.8333 279.667,45.8333 279,44.5C 277.34,42.072 276.174,39.4054 275.5,36.5C 275.833,35.1667 276.167,33.8333 276.5,32.5C 277.992,34.1565 279.658,35.6565 281.5,37C 286.634,38.0424 289.301,35.8757 289.5,30.5C 288.928,28.0789 288.428,25.7455 288,23.5C 289.231,24.1078 290.564,24.4411 292,24.5C 293.681,24.3917 294.848,23.7251 295.5,22.5 Z"/></g>
<g><path style="opacity:1" fill="#181818" d="M 340.5,27.5 C 339.946,31.0548 337.946,33.3882 334.5,34.5C 330,34.7809 329.167,33.1142 332,29.5C 333.667,27.8333 335.333,26.1667 337,24.5C 338.039,25.7101 339.206,26.7101 340.5,27.5 Z"/></g>
<g><path style="opacity:0.11" fill="#747474" d="M 69.5,26.5 C 70.1667,26.5 70.5,26.1667 70.5,25.5C 74.8786,24.7997 78.8786,23.133 82.5,20.5C 83.8333,21.5 83.8333,22.5 82.5,23.5C 79.0274,25.6509 75.3608,27.3176 71.5,28.5C 70.2867,28.2528 69.62,27.5862 69.5,26.5 Z"/></g>
<g><path style="opacity:0.553" fill="#909090" d="M 384.5,24.5 C 384.262,26.4044 383.262,27.7377 381.5,28.5C 381.738,26.5956 382.738,25.2623 384.5,24.5 Z"/></g>
<g><path style="opacity:0.541" fill="#8b8b8b" d="M 128.5,14.5 C 129.756,14.4614 130.756,14.9614 131.5,16C 130.904,21.1458 130.571,26.3125 130.5,31.5C 129.031,27.443 128.031,23.2763 127.5,19C 128.38,17.6439 128.714,16.1439 128.5,14.5 Z"/></g>
<g><path style="opacity:0.18" fill="#bababa" d="M 13.5,28.5 C 12.5084,28.3284 11.8417,28.6618 11.5,29.5C 10.2241,28.6136 10.2241,27.6136 11.5,26.5C 12.5223,26.8555 13.189,27.5222 13.5,28.5 Z"/></g>
<g><path style="opacity:0.525" fill="#8b8b8b" d="M 82.5,27.5 C 85.3154,27.7826 85.8154,28.7826 84,30.5C 81.2305,31.3479 78.3971,31.6813 75.5,31.5C 75.5,30.5 75.5,29.5 75.5,28.5C 78.0593,28.8016 80.3926,28.4682 82.5,27.5 Z"/></g>
<g><path style="opacity:0.444" fill="#808080" d="M 237.5,29.5 C 232.821,29.3342 228.155,29.5008 223.5,30C 217.775,31.4107 212.108,32.9107 206.5,34.5C 216.242,28.8334 226.575,27.1667 237.5,29.5 Z"/></g>
<g><path style="opacity:1" fill="#1e1e1e" d="M 63.5,29.5 C 63.8333,29.5 64.1667,29.5 64.5,29.5C 65.7804,30.9313 67.4471,31.5979 69.5,31.5C 69.9731,32.9063 70.9731,33.573 72.5,33.5C 73.1049,36.1267 73.6049,38.7934 74,41.5C 75.045,40.6266 75.8783,39.6266 76.5,38.5C 77.4916,38.3284 78.1583,38.6618 78.5,39.5C 76.8333,40.5 75.5,41.8333 74.5,43.5C 73.1148,44.9473 73.4482,45.9473 75.5,46.5C 70.8748,56.8146 72.3748,57.8146 80,49.5C 81.298,48.0544 81.4646,46.7211 80.5,45.5C 80.56,44.9569 80.8933,44.6236 81.5,44.5C 82.5237,45.8532 83.857,46.5198 85.5,46.5C 85.4828,48.5648 85.1495,50.5648 84.5,52.5C 82.5,53.8333 80.8333,55.5 79.5,57.5C 76.5063,59.9998 73.173,61.9998 69.5,63.5C 66.883,64.7859 64.5496,66.4525 62.5,68.5C 57.6185,71.0411 55.2851,75.0411 55.5,80.5C 58.4368,82.5892 61.7701,84.0892 65.5,85C 67.229,86.7889 67.8957,88.9556 67.5,91.5C 65.3511,93.7458 62.6844,95.2458 59.5,96C 53.8431,96.4994 48.1764,96.6661 42.5,96.5C 42.0825,95.7784 41.4158,95.2784 40.5,95C 43.6946,94.8195 46.6946,94.3195 49.5,93.5C 55.0236,94.1017 60.1902,93.1017 65,90.5C 65.7805,89.0563 65.6139,87.723 64.5,86.5C 61.5711,84.6726 58.5711,84.3392 55.5,85.5C 55.5,85.1667 55.5,84.8333 55.5,84.5C 55.5,83.8333 55.1667,83.5 54.5,83.5C 52.4258,80.1516 52.0925,76.6516 53.5,73C 50.9028,72.2208 50.9028,71.7208 53.5,71.5C 55.5,71.5 56.5,70.5 56.5,68.5C 56.8333,68.5 57.1667,68.5 57.5,68.5C 59.9501,66.7708 62.6167,65.2708 65.5,64C 65.1667,63.6667 64.8333,63.3333 64.5,63C 66.9589,62.276 67.9589,60.9427 67.5,59C 69.8912,57.6914 69.8912,56.6914 67.5,56C 68.8333,54.6667 70.1667,53.3333 71.5,52C 70.9056,51.5357 70.2389,51.369 69.5,51.5C 69.8333,50.5 70.5,49.8333 71.5,49.5C 72.5689,46.5754 72.5689,43.242 71.5,39.5C 71.44,38.9569 71.1067,38.6236 70.5,38.5C 68.396,39.5195 66.396,40.5195 64.5,41.5C 58.5451,42.3635 52.5451,42.6968 46.5,42.5C 48.8333,41.8333 51.1667,41.1667 53.5,40.5C 55.1667,40.5 56.8333,40.5 58.5,40.5C 59.1667,40.1667 59.8333,39.8333 60.5,39.5C 61.8333,39.1667 63.1667,38.8333 64.5,38.5C 71.1315,36.8649 71.1315,35.1983 64.5,33.5C 61.4928,31.8255 58.1595,31.1588 54.5,31.5C 54.1667,38.1667 53.8333,38.1667 53.5,31.5C 52.5,31.5 51.5,31.5 50.5,31.5C 49.8333,31.5 49.1667,31.5 48.5,31.5C 47.8333,31.5 47.1667,31.5 46.5,31.5C 43.2869,31.19 40.2869,31.5233 37.5,32.5C 37.1667,32.5 36.8333,32.5 36.5,32.5C 34.3024,32.8751 32.3024,33.5418 30.5,34.5C 28.9826,34.5106 27.8159,35.1772 27,36.5C 26.4719,37.816 26.9719,38.4827 28.5,38.5C 29.9187,39.4511 31.5853,39.7845 33.5,39.5C 31.6568,40.2829 29.6568,40.9495 27.5,41.5C 26.2267,42.2565 26.2267,42.9232 27.5,43.5C 27.3284,44.4916 27.6618,45.1583 28.5,45.5C 27.375,46.6522 27.375,47.6522 28.5,48.5C 29.9746,50.4095 31.9746,51.5762 34.5,52C 32.4432,52.3052 30.4432,52.3052 28.5,52C 29.0659,52.9947 29.7326,53.828 30.5,54.5C 30.2627,55.791 30.596,56.791 31.5,57.5C 32.8851,59.8835 34.8851,61.5501 37.5,62.5C 37.5569,63.609 37.8902,64.609 38.5,65.5C 37.8333,65.5 37.1667,65.5 36.5,65.5C 34.8623,64.1678 33.1956,62.8345 31.5,61.5C 26.8144,59.5547 22.481,56.888 18.5,53.5C 18.5,52.1667 18.5,50.8333 18.5,49.5C 18.427,47.9731 19.0937,46.9731 20.5,46.5C 23.4602,47.8494 25.1269,46.8494 25.5,43.5C 24.8075,39.2473 25.8075,35.5807 28.5,32.5C 39.9629,29.7723 51.6295,28.7723 63.5,29.5 Z"/></g>
<g><path style="opacity:0.761" fill="#8d8d8d" d="M 119.5,21.5 C 120.362,25.7297 122.028,29.7297 124.5,33.5C 123.132,34.5937 121.965,34.2603 121,32.5C 119.589,30.3496 118.755,28.0163 118.5,25.5C 119.434,24.4324 119.768,23.099 119.5,21.5 Z"/></g>
<g><path style="opacity:1" fill="#151515" d="M 386.5,21.5 C 393.5,21.5 400.5,21.5 407.5,21.5C 407.427,23.0269 408.094,24.0269 409.5,24.5C 411.123,28.1233 413.79,30.79 417.5,32.5C 419.976,31.1851 422.143,29.5185 424,27.5C 426.023,29.0127 425.856,30.3461 423.5,31.5C 424.425,32.5624 425.425,32.5624 426.5,31.5C 427.398,32.1577 428.398,32.8243 429.5,33.5C 425.687,34.1671 422.021,34.8337 418.5,35.5C 406.884,34.542 395.217,34.2087 383.5,34.5C 377.31,34.1771 371.31,34.5104 365.5,35.5C 364.508,35.3284 363.842,35.6618 363.5,36.5C 362.308,35.4341 362.641,34.6008 364.5,34C 369.625,33.0747 374.625,32.2414 379.5,31.5C 380.906,31.0269 381.573,30.0269 381.5,28.5C 383.262,27.7377 384.262,26.4044 384.5,24.5C 385.906,24.0269 386.573,23.0269 386.5,21.5 Z"/></g>
<g><path style="opacity:1" fill="#e3e3e3" d="M 387.5,26.5 C 386.962,28.1172 386.629,29.7839 386.5,31.5C 385.167,31.5 383.833,31.5 382.5,31.5C 383.833,29.5 385.5,27.8333 387.5,26.5 Z"/></g>
<g><path style="opacity:1" fill="#d6d6d6" d="M 406.5,25.5 C 407.674,26.5137 408.34,27.847 408.5,29.5C 407.542,32.1247 406.376,32.1247 405,29.5C 404.29,30.9733 403.124,31.6399 401.5,31.5C 401.201,29.396 401.534,27.396 402.5,25.5C 403.192,26.0253 403.692,26.6919 404,27.5C 404.417,26.244 405.25,25.5774 406.5,25.5 Z"/></g>
<g><path style="opacity:0.824" fill="#5c5c5c" d="M 409.5,24.5 C 410.794,25.2899 411.961,26.2899 413,27.5C 413.5,27 414,26.5 414.5,26C 417.833,25.3333 421.167,25.3333 424.5,26C 426.581,27.6002 427.248,29.4336 426.5,31.5C 425.425,32.5624 424.425,32.5624 423.5,31.5C 425.856,30.3461 426.023,29.0127 424,27.5C 422.143,29.5185 419.976,31.1851 417.5,32.5C 413.79,30.79 411.123,28.1233 409.5,24.5 Z"/></g>
<g><path style="opacity:0.792" fill="#5c5c5c" d="M 13.5,28.5 C 15.9078,30.9162 18.5744,32.9162 21.5,34.5C 22.5511,35.2223 23.2178,36.2223 23.5,37.5C 18.5051,36.3352 14.5051,33.6685 11.5,29.5C 11.8417,28.6618 12.5084,28.3284 13.5,28.5 Z"/></g>
<g><path style="opacity:0.345" fill="#9c9c9c" d="M 64.5,29.5 C 66.5529,29.4021 68.2196,30.0687 69.5,31.5C 67.4471,31.5979 65.7804,30.9313 64.5,29.5 Z"/></g>
<g><path style="opacity:0.376" fill="#9f9f9f" d="M 381.5,28.5 C 381.573,30.0269 380.906,31.0269 379.5,31.5C 379.427,29.9731 380.094,28.9731 381.5,28.5 Z"/></g>
<g><path style="opacity:0.843" fill="#7a7a7a" d="M 63.5,29.5 C 51.6295,28.7723 39.9629,29.7723 28.5,32.5C 39.848,27.3804 51.5147,26.3804 63.5,29.5 Z"/></g>
<g><path style="opacity:0.004" fill="#bdbdbd" d="M 69.5,31.5 C 71.0269,31.427 72.0269,32.0937 72.5,33.5C 70.9731,33.573 69.9731,32.9063 69.5,31.5 Z"/></g>
<g><path style="opacity:0.871" fill="#5f5f5f" d="M 237.5,29.5 C 240.326,29.9977 242.66,31.3311 244.5,33.5C 241.658,34.6125 238.992,34.1125 236.5,32C 237.5,31.6667 238.5,31.3333 239.5,31C 238.584,30.7216 237.918,30.2216 237.5,29.5 Z"/></g>
<g><path style="opacity:0.541" fill="#525252" d="M 379.5,31.5 C 374.625,32.2414 369.625,33.0747 364.5,34C 362.641,34.6008 362.308,35.4341 363.5,36.5C 363.5,37.8333 363.5,39.1667 363.5,40.5C 362.833,39.8333 362.167,39.1667 361.5,38.5C 361.5,37.8333 361.167,37.5 360.5,37.5C 360.874,34.1116 362.874,32.2782 366.5,32C 370.821,31.501 375.154,31.3343 379.5,31.5 Z"/></g>
<g><path style="opacity:1" fill="#878787" d="M 389.5,24.5 C 389.335,26.8268 388.669,28.9935 387.5,31C 388.448,31.4828 389.448,31.6495 390.5,31.5C 391.833,31.5 393.167,31.5 394.5,31.5C 394.232,29.901 394.566,28.5676 395.5,27.5C 395.5,28.8333 395.5,30.1667 395.5,31.5C 397.167,31.5 398.833,31.5 400.5,31.5C 400.795,29.2646 400.461,27.2646 399.5,25.5C 399.5,25.1667 399.5,24.8333 399.5,24.5C 402.059,24.1984 404.393,24.5318 406.5,25.5C 405.25,25.5774 404.417,26.244 404,27.5C 403.692,26.6919 403.192,26.0253 402.5,25.5C 401.534,27.396 401.201,29.396 401.5,31.5C 403.124,31.6399 404.29,30.9733 405,29.5C 406.376,32.1247 407.542,32.1247 408.5,29.5C 409.643,29.9081 410.643,30.5748 411.5,31.5C 401.675,32.8225 392.008,32.8225 382.5,31.5C 383.833,31.5 385.167,31.5 386.5,31.5C 386.629,29.7839 386.962,28.1172 387.5,26.5C 387.5,25.1667 388.167,24.5 389.5,24.5 Z"/></g>
<g><path style="opacity:1" fill="#b6b6b6" d="M 392.5,24.5 C 394.833,24.5 397.167,24.5 399.5,24.5C 399.5,24.8333 399.5,25.1667 399.5,25.5C 397.801,25.5271 396.467,26.1938 395.5,27.5C 394.566,28.5676 394.232,29.901 394.5,31.5C 393.167,31.5 391.833,31.5 390.5,31.5C 391.167,29.1667 391.833,26.8333 392.5,24.5 Z"/></g>
<g><path style="opacity:1" fill="#f5f5f5" d="M 389.5,24.5 C 390.5,24.5 391.5,24.5 392.5,24.5C 391.833,26.8333 391.167,29.1667 390.5,31.5C 389.448,31.6495 388.448,31.4828 387.5,31C 388.669,28.9935 389.335,26.8268 389.5,24.5 Z"/></g>
<g><path style="opacity:1" fill="#efefef" d="M 399.5,25.5 C 400.461,27.2646 400.795,29.2646 400.5,31.5C 398.833,31.5 397.167,31.5 395.5,31.5C 395.5,30.1667 395.5,28.8333 395.5,27.5C 396.467,26.1938 397.801,25.5271 399.5,25.5 Z"/></g>
<g><path style="opacity:1" fill="#f2f2f2" d="M 37.5,32.5 C 39.0603,34.1561 40.0603,36.1561 40.5,38.5C 39.791,39.404 38.791,39.7373 37.5,39.5C 37.5,37.1667 37.5,34.8333 37.5,32.5 Z"/></g>
<g><path style="opacity:1" fill="#f6f6f6" d="M 255.5,63.5 C 246.269,70.5239 235.935,73.3573 224.5,72C 224.833,72.3333 225.167,72.6667 225.5,73C 215.033,76.5435 204.7,80.3769 194.5,84.5C 198.557,79.1546 203.89,74.4879 210.5,70.5C 208.665,68.0872 206.332,66.4205 203.5,65.5C 196.748,60.8401 194.415,54.5068 196.5,46.5C 197.906,46.0269 198.573,45.0269 198.5,43.5C 216.699,27.2711 234.532,27.6044 252,44.5C 256.326,50.2831 257.492,56.6164 255.5,63.5 Z"/></g>
<g><path style="opacity:0.855" fill="#757575" d="M 186.5,27.5 C 187.376,27.3691 188.043,27.7025 188.5,28.5C 183.748,33.7167 178.082,37.7167 171.5,40.5C 170.692,40.1924 170.025,39.6924 169.5,39C 175.87,36.1163 181.537,32.283 186.5,27.5 Z"/></g>
<g><path style="opacity:0.892" fill="#5b5b5b" d="M 340.5,27.5 C 339.206,26.7101 338.039,25.7101 337,24.5C 335.333,26.1667 333.667,27.8333 332,29.5C 329.167,33.1142 330,34.7809 334.5,34.5C 326.767,39.568 320.767,46.2346 316.5,54.5C 314.817,53.3393 312.984,52.3393 311,51.5C 309.272,51.899 307.772,52.5657 306.5,53.5C 306.167,53.5 305.833,53.5 305.5,53.5C 305.262,51.5956 304.262,50.2623 302.5,49.5C 301.603,46.0354 299.936,43.0354 297.5,40.5C 298.372,38.9458 298.372,37.6124 297.5,36.5C 297.513,33.8021 296.846,30.9688 295.5,28C 295.528,26.9302 295.861,26.0968 296.5,25.5C 298.521,27.693 300.188,30.193 301.5,33C 300.139,35.7296 299.639,38.5629 300,41.5C 302.186,45.1983 304.853,48.5317 308,51.5C 308.689,50.6433 309.522,49.9767 310.5,49.5C 311.768,50.4279 313.101,50.5946 314.5,50C 321.907,41.6005 328.907,32.9338 335.5,24C 338.368,23.3599 340.035,24.5266 340.5,27.5 Z"/></g>
<g><path style="opacity:0.082" fill="#b7b7b7" d="M 26.5,29.5 C 27.1667,30.5 27.8333,31.5 28.5,32.5C 25.8075,35.5807 24.8075,39.2473 25.5,43.5C 24.5084,43.6716 23.8417,43.3382 23.5,42.5C 24.7199,40.9504 24.7199,39.2837 23.5,37.5C 23.2178,36.2223 22.5511,35.2223 21.5,34.5C 22.8734,34.6567 24.2068,34.49 25.5,34C 26.5981,33.2303 26.5981,32.397 25.5,31.5C 26.3382,31.1583 26.6716,30.4916 26.5,29.5 Z"/></g>
<g><path style="opacity:1" fill="#a1a1a1" d="M 37.5,32.5 C 40.2869,31.5233 43.2869,31.19 46.5,31.5C 46.6641,34.1873 46.4974,36.854 46,39.5C 44.6485,37.4062 44.1485,35.0728 44.5,32.5C 43.5,32.5 42.5,32.5 41.5,32.5C 41.5,33.8333 41.5,35.1667 41.5,36.5C 40.6618,36.8417 40.3284,37.5084 40.5,38.5C 40.0603,36.1561 39.0603,34.1561 37.5,32.5 Z"/></g>
<g><path style="opacity:0.831" fill="#656565" d="M 102.5,29.5 C 107.153,33.1497 111.82,36.8164 116.5,40.5C 116.167,40.8333 115.833,41.1667 115.5,41.5C 110.915,39.0812 106.748,36.0812 103,32.5C 102.517,31.552 102.351,30.552 102.5,29.5 Z"/></g>
<g><path style="opacity:0.004" fill="#b8b8b8" d="M 245.5,34.5 C 247.833,34.8333 249.167,36.1667 249.5,38.5C 247.833,37.5 246.5,36.1667 245.5,34.5 Z"/></g>
<g><path style="opacity:1" fill="#e2e2e2" d="M 30.5,34.5 C 30.8432,36.4832 30.1765,37.8166 28.5,38.5C 26.9719,38.4827 26.4719,37.816 27,36.5C 27.8159,35.1772 28.9826,34.5106 30.5,34.5 Z"/></g>
<g><path style="opacity:1" fill="#b3b3b3" d="M 36.5,32.5 C 36.5,34.8333 36.5,37.1667 36.5,39.5C 35.5,39.5 34.5,39.5 33.5,39.5C 31.5853,39.7845 29.9187,39.4511 28.5,38.5C 30.1765,37.8166 30.8432,36.4832 30.5,34.5C 32.3024,33.5418 34.3024,32.8751 36.5,32.5 Z"/></g>
<g><path style="opacity:1" fill="#9f9f9f" d="M 64.5,33.5 C 71.1315,35.1983 71.1315,36.8649 64.5,38.5C 64.5,36.8333 64.5,35.1667 64.5,33.5 Z"/></g>
<g><path style="opacity:0.159" fill="#c7c7c7" d="M 150.5,36.5 C 152.473,35.8373 154.639,35.5039 157,35.5C 159.61,35.5332 161.777,36.1999 163.5,37.5C 163.167,37.5 162.833,37.5 162.5,37.5C 159.038,36.5184 155.371,36.185 151.5,36.5C 151.167,36.5 150.833,36.5 150.5,36.5 Z"/></g>
<g><path style="opacity:1" fill="#181818" d="M 237.5,29.5 C 237.918,30.2216 238.584,30.7216 239.5,31C 238.5,31.3333 237.5,31.6667 236.5,32C 238.992,34.1125 241.658,34.6125 244.5,33.5C 245.167,33.5 245.5,33.8333 245.5,34.5C 246.5,36.1667 247.833,37.5 249.5,38.5C 250.167,38.5 250.5,38.8333 250.5,39.5C 251.419,42.0892 253.086,44.0892 255.5,45.5C 255.427,47.0269 256.094,48.0269 257.5,48.5C 258.129,51.3973 259.129,54.064 260.5,56.5C 260.5,57.1667 260.5,57.8333 260.5,58.5C 258.75,59.6594 257.75,61.326 257.5,63.5C 257.5,64.1667 257.167,64.5 256.5,64.5C 255.833,64.5 255.5,64.1667 255.5,63.5C 257.492,56.6164 256.326,50.2831 252,44.5C 234.532,27.6044 216.699,27.2711 198.5,43.5C 198.833,42.1667 199.167,40.8333 199.5,39.5C 202.117,38.2141 204.45,36.5475 206.5,34.5C 212.108,32.9107 217.775,31.4107 223.5,30C 228.155,29.5008 232.821,29.3342 237.5,29.5 Z"/></g>
<g><path style="opacity:1" fill="#ededed" d="M 383.5,34.5 C 391.99,35.3296 400.657,35.8296 409.5,36C 398.5,36.3333 387.5,36.6667 376.5,37C 388.167,37.6667 399.833,37.6667 411.5,37C 414.036,36.8138 416.369,36.3138 418.5,35.5C 422.167,35.5 425.833,35.5 429.5,35.5C 429.5,36.5 429.5,37.5 429.5,38.5C 429.062,38.4346 428.728,38.6012 428.5,39C 431.051,40.5158 430.718,41.3491 427.5,41.5C 424.187,42.0448 420.854,42.5448 417.5,43C 420.675,42.9467 423.342,43.78 425.5,45.5C 426.167,46.1667 426.833,46.8333 427.5,47.5C 423.172,48.0464 418.838,48.7131 414.5,49.5C 417.795,50.4015 421.128,50.4015 424.5,49.5C 424.704,52.5176 425.037,55.5176 425.5,58.5C 422.15,58.335 418.817,58.5017 415.5,59C 417.81,59.4966 420.143,59.6633 422.5,59.5C 422.5,60.8333 422.5,62.1667 422.5,63.5C 414.5,63.8333 414.5,64.1667 422.5,64.5C 423.21,67.8595 421.876,69.6929 418.5,70C 419.793,70.49 421.127,70.6567 422.5,70.5C 422.715,72.1788 422.048,73.1788 420.5,73.5C 419.837,75.0419 419.17,76.7086 418.5,78.5C 416.149,76.7711 413.482,76.1044 410.5,76.5C 408.154,76.016 405.821,75.6827 403.5,75.5C 413.211,70.9274 416.711,63.2607 414,52.5C 407.244,38.0935 397.41,35.5935 384.5,45C 381.377,45.2065 378.377,45.8732 375.5,47C 377.811,46.8446 380.144,46.8446 382.5,47C 377.96,54.6026 377.46,62.4359 381,70.5C 382.73,72.4019 384.563,74.0686 386.5,75.5C 383.022,74.686 379.355,74.686 375.5,75.5C 375.672,74.5084 375.338,73.8417 374.5,73.5C 373.602,72.8423 372.602,72.1757 371.5,71.5C 374.229,69.6329 373.896,68.6329 370.5,68.5C 370.297,66.6096 370.963,65.1096 372.5,64C 370.368,62.3796 370.035,60.5463 371.5,58.5C 372.043,58.44 372.376,58.1067 372.5,57.5C 371.007,56.8589 370.007,55.8589 369.5,54.5C 376.167,52.5251 376.167,51.8584 369.5,52.5C 369.433,49.234 371.099,47.734 374.5,48C 369.167,47 369.167,46 374.5,45C 373.062,44.7811 371.729,44.2811 370.5,43.5C 370.833,42.8333 371.167,42.1667 371.5,41.5C 374.062,40.3591 376.728,39.5257 379.5,39C 377.567,38.7489 375.734,38.2489 374,37.5C 371.575,39.4288 368.742,40.4288 365.5,40.5C 365.5,38.8333 365.5,37.1667 365.5,35.5C 371.31,34.5104 377.31,34.1771 383.5,34.5 Z"/></g>
<g><path style="opacity:0.741" fill="#747474" d="M 426.5,31.5 C 430.151,31.1617 431.817,32.8284 431.5,36.5C 430.833,37.1667 430.167,37.8333 429.5,38.5C 429.5,37.5 429.5,36.5 429.5,35.5C 425.833,35.5 422.167,35.5 418.5,35.5C 422.021,34.8337 425.687,34.1671 429.5,33.5C 428.398,32.8243 427.398,32.1577 426.5,31.5 Z"/></g>
<g><path style="opacity:1" fill="#535353" d="M 60.5,39.5 C 59.8333,39.8333 59.1667,40.1667 58.5,40.5C 58.3367,38.1432 58.5034,35.8098 59,33.5C 59.3153,35.5856 59.8153,37.5856 60.5,39.5 Z"/></g>
<g><path style="opacity:1" fill="#5e5e5e" d="M 295.5,22.5 C 294.848,23.7251 293.681,24.3917 292,24.5C 290.564,24.4411 289.231,24.1078 288,23.5C 288.428,25.7455 288.928,28.0789 289.5,30.5C 289.301,35.8757 286.634,38.0424 281.5,37C 279.658,35.6565 277.992,34.1565 276.5,32.5C 276.167,33.8333 275.833,35.1667 275.5,36.5C 276.174,39.4054 277.34,42.072 279,44.5C 279.667,45.8333 280.333,45.8333 281,44.5C 281.249,45.624 281.749,46.624 282.5,47.5C 283.736,46.7542 285.07,46.4208 286.5,46.5C 288.199,46.3398 289.866,46.5065 291.5,47C 294.216,50.2706 296.549,53.7706 298.5,57.5C 298.5,58.5 298.5,59.5 298.5,60.5C 297.5,61.8333 296.5,63.1667 295.5,64.5C 294.662,64.1583 294.328,63.4916 294.5,62.5C 295.456,61.3406 296.456,60.1739 297.5,59C 295.463,55.7635 293.296,52.5968 291,49.5C 287.28,49.3418 283.446,49.1751 279.5,49C 276.105,45.7807 273.772,41.9474 272.5,37.5C 273.08,34.0643 274.414,31.0643 276.5,28.5C 277.629,31.4628 279.629,33.6294 282.5,35C 286.977,35.1645 288.477,32.9978 287,28.5C 286.028,26.6951 284.861,25.0284 283.5,23.5C 287.445,22.5091 291.445,22.1758 295.5,22.5 Z"/></g>
<g><path style="opacity:1" fill="#a6a6a6" d="M 383.5,34.5 C 395.217,34.2087 406.884,34.542 418.5,35.5C 416.369,36.3138 414.036,36.8138 411.5,37C 399.833,37.6667 388.167,37.6667 376.5,37C 387.5,36.6667 398.5,36.3333 409.5,36C 400.657,35.8296 391.99,35.3296 383.5,34.5 Z"/></g>
<g><path style="opacity:0.361" fill="#949494" d="M 72.5,33.5 C 73.6912,35.3268 75.0245,36.9934 76.5,38.5C 75.8783,39.6266 75.045,40.6266 74,41.5C 73.6049,38.7934 73.1049,36.1267 72.5,33.5 Z"/></g>
<g><path style="opacity:0.776" fill="#757575" d="M 206.5,34.5 C 204.45,36.5475 202.117,38.2141 199.5,39.5C 200.992,36.6769 203.326,35.0102 206.5,34.5 Z"/></g>
<g><path style="opacity:1" fill="#dddddd" d="M 46.5,31.5 C 47.1667,31.5 47.8333,31.5 48.5,31.5C 49.6304,40.6354 50.2971,40.6354 50.5,31.5C 51.5,31.5 52.5,31.5 53.5,31.5C 53.8333,38.1667 54.1667,38.1667 54.5,31.5C 58.1595,31.1588 61.4928,31.8255 64.5,33.5C 64.5,35.1667 64.5,36.8333 64.5,38.5C 63.1667,38.8333 61.8333,39.1667 60.5,39.5C 59.8153,37.5856 59.3153,35.5856 59,33.5C 58.5034,35.8098 58.3367,38.1432 58.5,40.5C 56.8333,40.5 55.1667,40.5 53.5,40.5C 49.8183,40.6653 46.1516,40.4986 42.5,40C 41.6634,38.9887 41.33,37.8221 41.5,36.5C 41.5,35.1667 41.5,33.8333 41.5,32.5C 42.5,32.5 43.5,32.5 44.5,32.5C 44.1485,35.0728 44.6485,37.4062 46,39.5C 46.4974,36.854 46.6641,34.1873 46.5,31.5 Z"/></g>
<g><path style="opacity:1" fill="#6c6c6c" d="M 48.5,31.5 C 49.1667,31.5 49.8333,31.5 50.5,31.5C 50.2971,40.6354 49.6304,40.6354 48.5,31.5 Z"/></g>
<g><path style="opacity:1" fill="#dddddd" d="M 78.5,39.5 C 83.3277,38.8401 85.161,40.8401 84,45.5C 81.2254,38.9574 78.2254,38.9574 75,45.5C 74.5357,44.9056 74.369,44.2389 74.5,43.5C 75.5,41.8333 76.8333,40.5 78.5,39.5 Z"/></g>
<g><path style="opacity:1" fill="#eaeaea" d="M 159.5,38.5 C 158.5,41.1667 157.5,43.8333 156.5,46.5C 156.217,47.2891 155.717,47.9558 155,48.5C 152.023,45.8694 149.523,42.8694 147.5,39.5C 151.445,38.5091 155.445,38.1758 159.5,38.5 Z"/></g>
<g><path style="opacity:1" fill="#404040" d="M 36.5,32.5 C 36.8333,32.5 37.1667,32.5 37.5,32.5C 37.5,34.8333 37.5,37.1667 37.5,39.5C 38.791,39.7373 39.791,39.404 40.5,38.5C 40.3284,37.5084 40.6618,36.8417 41.5,36.5C 41.33,37.8221 41.6634,38.9887 42.5,40C 46.1516,40.4986 49.8183,40.6653 53.5,40.5C 51.1667,41.1667 48.8333,41.8333 46.5,42.5C 41.1871,41.6381 35.8538,41.4715 30.5,42C 31.8333,42.3333 33.1667,42.6667 34.5,43C 31.937,43.126 29.6036,43.2927 27.5,43.5C 26.2267,42.9232 26.2267,42.2565 27.5,41.5C 29.6568,40.9495 31.6568,40.2829 33.5,39.5C 34.5,39.5 35.5,39.5 36.5,39.5C 36.5,37.1667 36.5,34.8333 36.5,32.5 Z"/></g>
<g><path style="opacity:1" fill="#7a7a7a" d="M 150.5,36.5 C 150.833,36.5 151.167,36.5 151.5,36.5C 142.991,37.1666 134.324,37.8333 125.5,38.5C 125.624,39.1067 125.957,39.44 126.5,39.5C 126.5,39.8333 126.5,40.1667 126.5,40.5C 125.167,42.1667 123.833,43.8333 122.5,45.5C 122.737,44.209 122.404,43.209 121.5,42.5C 122.242,40.5742 123.242,38.7409 124.5,37C 132.412,36.8166 140.246,36.3166 148,35.5C 148.671,36.2524 149.504,36.5858 150.5,36.5 Z"/></g>
<g><path style="opacity:1" fill="#646464" d="M 162.5,37.5 C 162.833,37.5 163.167,37.5 163.5,37.5C 164.674,38.5137 165.34,39.847 165.5,41.5C 164.596,42.209 164.263,43.209 164.5,44.5C 163.935,42.6136 162.935,40.9469 161.5,39.5C 159.031,42.3782 158.364,45.5448 159.5,49C 161.134,49.4935 162.801,49.6602 164.5,49.5C 161.976,50.8003 159.309,50.8003 156.5,49.5C 157.653,48.3132 157.653,47.3132 156.5,46.5C 157.5,43.8333 158.5,41.1667 159.5,38.5C 160.791,38.7373 161.791,38.404 162.5,37.5 Z"/></g>
<g><path style="opacity:0.776" fill="#818181" d="M 250.5,39.5 C 252.914,40.9108 254.581,42.9108 255.5,45.5C 253.086,44.0892 251.419,42.0892 250.5,39.5 Z"/></g>
<g><path style="opacity:1" fill="#9e9e9e" d="M 297.5,36.5 C 298.372,37.6124 298.372,38.9458 297.5,40.5C 299.936,43.0354 301.603,46.0354 302.5,49.5C 300.833,48.5 299.5,47.1667 298.5,45.5C 297.21,42.7976 296.21,39.9643 295.5,37C 296.094,36.5357 296.761,36.369 297.5,36.5 Z"/></g>
<g><path style="opacity:1" fill="#f2f2f2" d="M 46.5,42.5 C 52.5451,42.6968 58.5451,42.3635 64.5,41.5C 65.9221,41.7496 66.9221,42.583 67.5,44C 65.0684,45.0875 65.4017,45.5875 68.5,45.5C 66.9581,46.1635 65.2914,46.8302 63.5,47.5C 64.7287,48.2811 66.062,48.7811 67.5,49C 66.1667,49.6667 64.8333,50.3333 63.5,51C 66.1801,51.3348 68.5134,50.5014 70.5,48.5C 71.1067,48.6236 71.44,48.9569 71.5,49.5C 70.5,49.8333 69.8333,50.5 69.5,51.5C 67.3635,52.4026 65.3635,53.5693 63.5,55C 64.5,55.3333 65.5,55.6667 66.5,56C 64.9411,56.9799 63.2744,57.8133 61.5,58.5C 62.0253,59.1924 62.6919,59.6924 63.5,60C 61.1706,61.6957 58.8372,63.1957 56.5,64.5C 56.7093,65.086 57.0426,65.586 57.5,66C 56.1667,66.3333 54.8333,66.6667 53.5,67C 55.0581,67.21 56.3915,67.71 57.5,68.5C 57.1667,68.5 56.8333,68.5 56.5,68.5C 52.8648,69.1143 49.1981,69.4476 45.5,69.5C 43.7673,68.9924 43.434,68.159 44.5,67C 42.7525,66.6481 41.0858,66.1481 39.5,65.5C 39.8807,64.0689 40.8807,63.2355 42.5,63C 40.8659,62.5065 39.1992,62.3398 37.5,62.5C 34.8851,61.5501 32.8851,59.8835 31.5,57.5C 32.6002,56.4415 33.9336,55.6082 35.5,55C 33.8659,54.5065 32.1992,54.3398 30.5,54.5C 29.7326,53.828 29.0659,52.9947 28.5,52C 30.4432,52.3052 32.4432,52.3052 34.5,52C 31.9746,51.5762 29.9746,50.4095 28.5,48.5C 31.1362,48.7966 33.8029,48.2966 36.5,47C 33.7462,46.7276 31.0795,46.2276 28.5,45.5C 27.6618,45.1583 27.3284,44.4916 27.5,43.5C 29.6036,43.2927 31.937,43.126 34.5,43C 33.1667,42.6667 31.8333,42.3333 30.5,42C 35.8538,41.4715 41.1871,41.6381 46.5,42.5 Z"/></g>
<g><path style="opacity:1" fill="#8c8c8c" d="M 71.5,39.5 C 70.0267,40.072 68.6934,40.9054 67.5,42C 68.5,43 69.5,44 70.5,45C 69.9056,45.4643 69.2389,45.631 68.5,45.5C 65.4017,45.5875 65.0684,45.0875 67.5,44C 66.9221,42.583 65.9221,41.7496 64.5,41.5C 66.396,40.5195 68.396,39.5195 70.5,38.5C 71.1067,38.6236 71.44,38.9569 71.5,39.5 Z"/></g>
<g><path style="opacity:0.337" fill="#a2a2a2" d="M 165.5,41.5 C 166.906,41.9731 167.573,42.9731 167.5,44.5C 166.094,44.0269 165.427,43.0269 165.5,41.5 Z"/></g>
<g><path style="opacity:1" fill="#2e2e2e" d="M 403.5,75.5 C 397.855,76.716 392.188,76.716 386.5,75.5C 384.563,74.0686 382.73,72.4019 381,70.5C 377.46,62.4359 377.96,54.6026 382.5,47C 380.144,46.8446 377.811,46.8446 375.5,47C 378.377,45.8732 381.377,45.2065 384.5,45C 397.41,35.5935 407.244,38.0935 414,52.5C 416.711,63.2607 413.211,70.9274 403.5,75.5 Z"/></g>
<g><path style="opacity:1" fill="#efefef" d="M 395.5,40.5 C 404.791,40.6202 410.291,45.2868 412,54.5C 412.78,71.0379 404.947,77.5379 388.5,74C 384.763,72.7189 382.263,70.2189 381,66.5C 378.077,53.3043 382.911,44.6376 395.5,40.5 Z"/></g>
<g><path style="opacity:1" fill="#575757" d="M 87.5,43.5 C 86.8333,44.5 86.1667,45.5 85.5,46.5C 83.857,46.5198 82.5237,45.8532 81.5,44.5C 80.8933,44.6236 80.56,44.9569 80.5,45.5C 78.7839,45.6287 77.1172,45.962 75.5,46.5C 73.4482,45.9473 73.1148,44.9473 74.5,43.5C 74.369,44.2389 74.5357,44.9056 75,45.5C 78.2254,38.9574 81.2254,38.9574 84,45.5C 85.161,40.8401 83.3277,38.8401 78.5,39.5C 78.1583,38.6618 77.4916,38.3284 76.5,38.5C 80.4705,35.5247 83.9705,36.1914 87,40.5C 87.4828,41.448 87.6495,42.448 87.5,43.5 Z"/></g>
<g><path style="opacity:1" fill="#d5d5d5" d="M 164.5,44.5 C 165.476,45.8149 166.476,47.1482 167.5,48.5C 166.675,49.3857 165.675,49.719 164.5,49.5C 162.801,49.6602 161.134,49.4935 159.5,49C 158.364,45.5448 159.031,42.3782 161.5,39.5C 162.935,40.9469 163.935,42.6136 164.5,44.5 Z"/></g>
<g><path style="opacity:1" fill="#4e4e4e" d="M 199.5,39.5 C 199.167,40.8333 198.833,42.1667 198.5,43.5C 198.573,45.0269 197.906,46.0269 196.5,46.5C 196.565,46.0618 196.399,45.7284 196,45.5C 195.392,47.0664 194.558,48.3998 193.5,49.5C 193.977,45.2066 195.977,41.8733 199.5,39.5 Z"/></g>
<g><path style="opacity:1" fill="#a6a6a6" d="M 365.5,35.5 C 365.5,37.1667 365.5,38.8333 365.5,40.5C 368.742,40.4288 371.575,39.4288 374,37.5C 375.734,38.2489 377.567,38.7489 379.5,39C 376.728,39.5257 374.062,40.3591 371.5,41.5C 371.167,42.1667 370.833,42.8333 370.5,43.5C 371.729,44.2811 373.062,44.7811 374.5,45C 369.167,46 369.167,47 374.5,48C 371.099,47.734 369.433,49.234 369.5,52.5C 367.958,53.3007 366.292,53.634 364.5,53.5C 364.81,50.2869 364.477,47.2869 363.5,44.5C 363.5,43.1667 363.5,41.8333 363.5,40.5C 363.5,39.1667 363.5,37.8333 363.5,36.5C 363.842,35.6618 364.508,35.3284 365.5,35.5 Z"/></g>
<g><path style="opacity:1" fill="#747474" d="M 393.5,45.5 C 394.5,44.1667 395.5,44.1667 396.5,45.5C 398.054,46.8946 397.721,47.5613 395.5,47.5C 394.833,47.3333 394.167,47.1667 393.5,47C 394.738,46.31 394.738,45.81 393.5,45.5 Z"/></g>
<g><path style="opacity:1" fill="#dedede" d="M 80.5,45.5 C 81.4646,46.7211 81.298,48.0544 80,49.5C 72.3748,57.8146 70.8748,56.8146 75.5,46.5C 77.1172,45.962 78.7839,45.6287 80.5,45.5 Z"/></g>
<g><path style="opacity:1" fill="#5b5b5b" d="M 298.5,45.5 C 299.5,47.1667 300.833,48.5 302.5,49.5C 302.5,50.1667 302.5,50.8333 302.5,51.5C 300.519,49.8564 298.519,48.1897 296.5,46.5C 295.614,47.325 295.281,48.325 295.5,49.5C 294.326,48.4863 293.66,47.153 293.5,45.5C 295.167,44.1667 296.833,44.1667 298.5,45.5 Z"/></g>
<g><path style="opacity:1" fill="#909090" d="M 28.5,45.5 C 31.0795,46.2276 33.7462,46.7276 36.5,47C 33.8029,48.2966 31.1362,48.7966 28.5,48.5C 27.375,47.6522 27.375,46.6522 28.5,45.5 Z"/></g>
<g><path style="opacity:1" fill="#222222" d="M 205.5,45.5 C 212.717,45.7664 214.383,49.0998 210.5,55.5C 204.032,56.8465 201.866,54.1799 204,47.5C 204.717,46.9558 205.217,46.2891 205.5,45.5 Z"/></g>
<g><path style="opacity:1" fill="#b9b9b9" d="M 293.5,45.5 C 293.66,47.153 294.326,48.4863 295.5,49.5C 296.974,50.4363 297.974,51.7697 298.5,53.5C 299.419,56.0892 301.086,58.0892 303.5,59.5C 303.5,60.1667 303.5,60.8333 303.5,61.5C 301.833,60.1667 300.167,58.8333 298.5,57.5C 296.549,53.7706 294.216,50.2706 291.5,47C 289.866,46.5065 288.199,46.3398 286.5,46.5C 286.987,45.5266 287.487,44.5266 288,43.5C 289.444,45.1554 291.278,45.822 293.5,45.5 Z"/></g>
<g><path style="opacity:1" fill="#8d8d8d" d="M 427.5,41.5 C 428.209,42.404 429.209,42.7373 430.5,42.5C 430.421,43.9305 430.754,45.2638 431.5,46.5C 430.675,47.3857 429.675,47.719 428.5,47.5C 428.649,46.448 428.483,45.448 428,44.5C 427.329,45.2524 426.496,45.5858 425.5,45.5C 423.342,43.78 420.675,42.9467 417.5,43C 420.854,42.5448 424.187,42.0448 427.5,41.5 Z"/></g>
<g><path style="opacity:1" fill="#212121" d="M 222.5,46.5 C 230.868,45.0613 234.368,48.3946 233,56.5C 229.609,59.9677 225.776,60.4677 221.5,58C 218.681,53.8987 219.014,50.0654 222.5,46.5 Z"/></g>
<g><path style="opacity:0.471" fill="#808080" d="M 255.5,45.5 C 256.906,45.9731 257.573,46.9731 257.5,48.5C 256.094,48.0269 255.427,47.0269 255.5,45.5 Z"/></g>
<g><path style="opacity:1" fill="#f0f0f0" d="M 302.5,51.5 C 302.738,53.4044 303.738,54.7377 305.5,55.5C 310.501,61.1764 315.168,67.1764 319.5,73.5C 319.333,73.8333 319.167,74.1667 319,74.5C 316.337,72.6664 313.837,70.6664 311.5,68.5C 309.57,64.8998 306.903,61.8998 303.5,59.5C 302.581,56.9108 300.914,54.9108 298.5,53.5C 297.974,51.7697 296.974,50.4363 295.5,49.5C 295.281,48.325 295.614,47.325 296.5,46.5C 298.519,48.1897 300.519,49.8564 302.5,51.5 Z"/></g>
<g><path style="opacity:0.016" fill="#989898" d="M 431.5,36.5 C 432.851,39.0225 434.017,41.6892 435,44.5C 435.821,57.0756 435.655,69.5756 434.5,82C 428.581,83.1956 422.581,83.8622 416.5,84C 405.172,84.4999 393.838,84.6665 382.5,84.5C 392.833,83.8333 403.167,83.1667 413.5,82.5C 420.148,81.8605 426.814,81.5272 433.5,81.5C 433.5,70.5 433.5,59.5 433.5,48.5C 432.962,44.4764 432.295,40.4764 431.5,36.5 Z"/></g>
<g><path style="opacity:1" fill="#cecece" d="M 126.5,40.5 C 128.616,43.7889 130.949,46.9556 133.5,50C 129.514,50.4988 125.514,50.6655 121.5,50.5C 120.624,50.6309 119.957,50.2975 119.5,49.5C 120.035,47.739 121.035,46.4057 122.5,45.5C 123.833,43.8333 125.167,42.1667 126.5,40.5 Z"/></g>
<g><path style="opacity:1" fill="#191919" d="M 393.5,45.5 C 394.738,45.81 394.738,46.31 393.5,47C 394.167,47.1667 394.833,47.3333 395.5,47.5C 397.721,47.5613 398.054,46.8946 396.5,45.5C 408.948,50.5708 410.615,58.0708 401.5,68C 387.36,71.5266 382.526,66.3599 387,52.5C 389.4,50.2707 391.567,47.9374 393.5,45.5 Z"/></g>
<g><path style="opacity:1" fill="#e0e0e0" d="M 21.5,48.5 C 26.33,48.4999 28.6633,50.9999 28.5,56C 25.8269,56.9736 23.3269,56.1403 21,53.5C 20.3603,51.735 20.5269,50.0683 21.5,48.5 Z"/></g>
<g><path style="opacity:1" fill="#3a3a3a" d="M 49.5,45.5 C 50.4972,45.4701 51.1639,45.9701 51.5,47C 49.9395,53.1228 50.6061,58.9562 53.5,64.5C 51.0108,64.7022 48.6775,64.2022 46.5,63C 47.7042,61.6472 48.3708,59.9806 48.5,58C 48.3333,56.5 48.1667,55 48,53.5C 47.2825,54.4506 46.4491,54.6172 45.5,54C 47.6966,51.5786 49.03,48.7452 49.5,45.5 Z"/></g>
<g><path style="opacity:1" fill="#1f1f1f" d="M 151.5,36.5 C 155.371,36.185 159.038,36.5184 162.5,37.5C 161.791,38.404 160.791,38.7373 159.5,38.5C 155.445,38.1758 151.445,38.5091 147.5,39.5C 149.523,42.8694 152.023,45.8694 155,48.5C 155.717,47.9558 156.217,47.2891 156.5,46.5C 157.653,47.3132 157.653,48.3132 156.5,49.5C 159.309,50.8003 161.976,50.8003 164.5,49.5C 165.675,49.719 166.675,49.3857 167.5,48.5C 166.476,47.1482 165.476,45.8149 164.5,44.5C 164.263,43.209 164.596,42.209 165.5,41.5C 165.427,43.0269 166.094,44.0269 167.5,44.5C 168.338,44.8417 168.672,45.5084 168.5,46.5C 169.63,48.3146 170.296,50.3146 170.5,52.5C 170.5,53.1667 170.167,53.5 169.5,53.5C 168.833,52.8333 168.167,52.1667 167.5,51.5C 162.968,51.1818 158.634,51.5151 154.5,52.5C 148.734,51.196 143.067,51.196 137.5,52.5C 134.167,52.5 130.833,52.5 127.5,52.5C 125.5,51.8333 123.5,51.1667 121.5,50.5C 125.514,50.6655 129.514,50.4988 133.5,50C 130.949,46.9556 128.616,43.7889 126.5,40.5C 126.5,40.1667 126.5,39.8333 126.5,39.5C 125.957,39.44 125.624,39.1067 125.5,38.5C 134.324,37.8333 142.991,37.1666 151.5,36.5 Z"/></g>
<g><path style="opacity:1" fill="#d8d8d8" d="M 144.5,39.5 C 147.635,42.8081 150.635,46.3081 153.5,50C 148.136,50.8295 142.802,50.6628 137.5,49.5C 139.859,46.1486 142.192,42.8153 144.5,39.5 Z"/></g>
<g><path style="opacity:1" fill="#ebebeb" d="M 126.5,39.5 C 131.68,38.1853 137.014,38.1853 142.5,39.5C 140.88,43.0819 138.547,46.0819 135.5,48.5C 132.265,45.6605 129.265,42.6605 126.5,39.5 Z"/></g>
<g><path style="opacity:0.31" fill="#a8a8a8" d="M 168.5,46.5 C 171.349,47.9196 172.016,49.9196 170.5,52.5C 170.296,50.3146 169.63,48.3146 168.5,46.5 Z"/></g>
<g><path style="opacity:1" fill="#919191" d="M 227.5,48.5 C 228.643,48.9081 229.643,49.5748 230.5,50.5C 228.907,51.8304 227.24,53.1637 225.5,54.5C 224.585,53.6721 223.919,52.6721 223.5,51.5C 225.184,50.8503 226.517,49.8503 227.5,48.5 Z"/></g>
<g><path style="opacity:1" fill="#747474" d="M 71.5,39.5 C 72.5689,43.242 72.5689,46.5754 71.5,49.5C 71.44,48.9569 71.1067,48.6236 70.5,48.5C 68.5134,50.5014 66.1801,51.3348 63.5,51C 64.8333,50.3333 66.1667,49.6667 67.5,49C 66.062,48.7811 64.7287,48.2811 63.5,47.5C 65.2914,46.8302 66.9581,46.1635 68.5,45.5C 69.2389,45.631 69.9056,45.4643 70.5,45C 69.5,44 68.5,43 67.5,42C 68.6934,40.9054 70.0267,40.072 71.5,39.5 Z"/></g>
<g><path style="opacity:1" fill="#131313" d="M 361.5,38.5 C 362.167,39.1667 362.833,39.8333 363.5,40.5C 363.5,41.8333 363.5,43.1667 363.5,44.5C 363.172,56.0123 363.505,67.3456 364.5,78.5C 365.514,79.7647 367.014,80.4313 369,80.5C 370.707,80.4915 372.207,80.1582 373.5,79.5C 374.5,79.5 375.5,79.5 376.5,79.5C 387.829,79.499 399.163,79.499 410.5,79.5C 411.167,79.5 411.833,79.5 412.5,79.5C 413.5,79.5 414.5,79.5 415.5,79.5C 418.237,79.5987 420.904,79.2653 423.5,78.5C 425.861,78.6741 428.194,79.0074 430.5,79.5C 430.357,77.7376 430.691,76.0709 431.5,74.5C 429.993,73.2612 428.826,73.5946 428,75.5C 427.081,73.6329 426.581,71.6329 426.5,69.5C 425.686,71.7662 425.186,74.0995 425,76.5C 424.333,73.1667 424.333,69.8333 425,66.5C 425.308,67.3081 425.808,67.9747 426.5,68.5C 427.448,65.285 428.781,64.9516 430.5,67.5C 431.466,65.604 431.799,63.604 431.5,61.5C 431.5,61.1667 431.5,60.8333 431.5,60.5C 432.313,58.1132 432.646,55.7799 432.5,53.5C 432.216,51.5853 432.549,49.9187 433.5,48.5C 433.5,59.5 433.5,70.5 433.5,81.5C 426.814,81.5272 420.148,81.8605 413.5,82.5C 401.167,82.5 388.833,82.5 376.5,82.5C 371.833,82.5 367.167,82.5 362.5,82.5C 361.962,67.8391 361.628,53.1724 361.5,38.5 Z"/></g>
<g><path style="opacity:1" fill="#dddddd" d="M 20.5,46.5 C 19.0937,46.9731 18.427,47.9731 18.5,49.5C 17.6909,51.2922 17.1909,53.2922 17,55.5C 14.4455,48.388 16.9455,44.888 24.5,45C 22.9419,45.21 21.6085,45.71 20.5,46.5 Z"/></g>
<g><path style="opacity:0.149" fill="#acacac" d="M 87.5,43.5 C 87.8624,47.081 86.8624,50.081 84.5,52.5C 85.1495,50.5648 85.4828,48.5648 85.5,46.5C 86.1667,45.5 86.8333,44.5 87.5,43.5 Z"/></g>
<g><path style="opacity:1" fill="#1a1a1a" d="M 249.5,53.5 C 248.722,54.1556 248.056,54.9889 247.5,56C 247.836,57.0299 248.503,57.5299 249.5,57.5C 244.313,63.3949 240.313,62.7282 237.5,55.5C 240.269,47.0174 244.269,46.3507 249.5,53.5 Z"/></g>
<g><path style="opacity:1" fill="#d7d7d7" d="M 302.5,49.5 C 304.262,50.2623 305.262,51.5956 305.5,53.5C 304.5,52.8333 303.5,52.1667 302.5,51.5C 302.5,50.8333 302.5,50.1667 302.5,49.5 Z"/></g>
<g><path style="opacity:1" fill="#0d0d0d" d="M 316.5,54.5 C 316.5,54.8333 316.5,55.1667 316.5,55.5C 313.951,55.6126 311.618,54.9459 309.5,53.5C 309.167,53.6667 308.833,53.8333 308.5,54C 309.381,54.7083 310.047,55.5416 310.5,56.5C 310.167,56.5 309.833,56.5 309.5,56.5C 308.167,55.8333 307.167,54.8333 306.5,53.5C 307.772,52.5657 309.272,51.899 311,51.5C 312.984,52.3393 314.817,53.3393 316.5,54.5 Z"/></g>
<g><path style="opacity:1" fill="#fbfbfb" d="M 154.5,52.5 C 157.85,52.335 161.183,52.5017 164.5,53C 161.5,54.5 158.5,56 155.5,57.5C 154.702,57.0431 154.369,56.3764 154.5,55.5C 154.5,54.5 154.5,53.5 154.5,52.5 Z"/></g>
<g><path style="opacity:1" fill="#474747" d="M 302.5,51.5 C 303.5,52.1667 304.5,52.8333 305.5,53.5C 305.5,54.1667 305.5,54.8333 305.5,55.5C 303.738,54.7377 302.738,53.4044 302.5,51.5 Z"/></g>
<g><path style="opacity:0.875" fill="#4d4d4d" d="M 23.5,42.5 C 23.8417,43.3382 24.5084,43.6716 25.5,43.5C 25.1269,46.8494 23.4602,47.8494 20.5,46.5C 21.6085,45.71 22.9419,45.21 24.5,45C 16.9455,44.888 14.4455,48.388 17,55.5C 17.1909,53.2922 17.6909,51.2922 18.5,49.5C 18.5,50.8333 18.5,52.1667 18.5,53.5C 18.84,55.679 19.84,57.5123 21.5,59C 24.6786,60.4613 28.0119,61.2946 31.5,61.5C 33.1956,62.8345 34.8623,64.1678 36.5,65.5C 28.1314,65.2672 20.9647,62.2672 15,56.5C 11.9517,48.2633 14.7851,43.5966 23.5,42.5 Z"/></g>
<g><path style="opacity:1" fill="#1f1f1f" d="M 196.5,46.5 C 194.415,54.5068 196.748,60.8401 203.5,65.5C 203.44,66.0431 203.107,66.3764 202.5,66.5C 200.736,64.7224 198.736,63.3891 196.5,62.5C 195.89,60.5659 194.89,58.8993 193.5,57.5C 192.167,54.8333 192.167,52.1667 193.5,49.5C 194.558,48.3998 195.392,47.0664 196,45.5C 196.399,45.7284 196.565,46.0618 196.5,46.5 Z"/></g>
<g><path style="opacity:0.094" fill="#989898" d="M 257.5,48.5 C 259.655,50.6174 260.655,53.284 260.5,56.5C 259.129,54.064 258.129,51.3973 257.5,48.5 Z"/></g>
<g><path style="opacity:1" fill="#919191" d="M 394.5,53.5 C 396.484,52.3058 398.484,52.3058 400.5,53.5C 398.364,54.7928 396.364,54.7928 394.5,53.5 Z"/></g>
<g><path style="opacity:1" fill="#9e9e9e" d="M 69.5,51.5 C 70.2389,51.369 70.9056,51.5357 71.5,52C 70.1667,53.3333 68.8333,54.6667 67.5,56C 69.8912,56.6914 69.8912,57.6914 67.5,59C 67.9589,60.9427 66.9589,62.276 64.5,63C 64.8333,63.3333 65.1667,63.6667 65.5,64C 62.6167,65.2708 59.9501,66.7708 57.5,68.5C 56.3915,67.71 55.0581,67.21 53.5,67C 54.8333,66.6667 56.1667,66.3333 57.5,66C 57.0426,65.586 56.7093,65.086 56.5,64.5C 58.8372,63.1957 61.1706,61.6957 63.5,60C 62.6919,59.6924 62.0253,59.1924 61.5,58.5C 63.2744,57.8133 64.9411,56.9799 66.5,56C 65.5,55.6667 64.5,55.3333 63.5,55C 65.3635,53.5693 67.3635,52.4026 69.5,51.5 Z"/></g>
<g><path style="opacity:0.067" fill="#939393" d="M 84.5,52.5 C 83.8333,55.1667 82.1667,56.8333 79.5,57.5C 80.8333,55.5 82.5,53.8333 84.5,52.5 Z"/></g>
<g><path style="opacity:1" fill="#5b5b5b" d="M 298.5,53.5 C 300.914,54.9108 302.581,56.9108 303.5,59.5C 301.086,58.0892 299.419,56.0892 298.5,53.5 Z"/></g>
<g><path style="opacity:1" fill="#8d8d8d" d="M 432.5,53.5 C 432.646,55.7799 432.313,58.1132 431.5,60.5C 429.144,58.3165 428.811,55.6499 430.5,52.5C 429.96,51.2519 429.293,50.0852 428.5,49C 429.448,48.5172 430.448,48.3505 431.5,48.5C 431.216,50.4147 431.549,52.0813 432.5,53.5 Z"/></g>
<g><path style="opacity:1" fill="#868686" d="M 30.5,54.5 C 32.1992,54.3398 33.8659,54.5065 35.5,55C 33.9336,55.6082 32.6002,56.4415 31.5,57.5C 30.596,56.791 30.2627,55.791 30.5,54.5 Z"/></g>
<g><path style="opacity:1" fill="#999999" d="M 316.5,55.5 C 315.194,56.4674 314.527,57.8007 314.5,59.5C 313.363,58.2112 312.03,57.2112 310.5,56.5C 310.047,55.5416 309.381,54.7083 308.5,54C 308.833,53.8333 309.167,53.6667 309.5,53.5C 311.618,54.9459 313.951,55.6126 316.5,55.5 Z"/></g>
<g><path style="opacity:1" fill="#6f6f6f" d="M 394.5,53.5 C 393.15,54.4831 392.15,55.8164 391.5,57.5C 390.374,55.0503 391.041,53.0503 393.5,51.5C 394.298,51.9569 394.631,52.6236 394.5,53.5 Z"/></g>
<g><path style="opacity:1" fill="#626262" d="M 249.5,53.5 C 250.833,54.8333 250.833,56.1667 249.5,57.5C 248.503,57.5299 247.836,57.0299 247.5,56C 248.056,54.9889 248.722,54.1556 249.5,53.5 Z"/></g>
<g><path style="opacity:1" fill="#9e9e9e" d="M 369.5,54.5 C 370.007,55.8589 371.007,56.8589 372.5,57.5C 372.376,58.1067 372.043,58.44 371.5,58.5C 369.44,57.1888 367.274,57.1888 365,58.5C 364.517,57.552 364.351,56.552 364.5,55.5C 366.292,55.634 367.958,55.3007 369.5,54.5 Z"/></g>
<g><path style="opacity:1" fill="#d0d0d0" d="M 394.5,55.5 C 397.932,55.2479 398.932,56.5812 397.5,59.5C 395.45,58.9234 394.45,57.5901 394.5,55.5 Z"/></g>
<g><path style="opacity:1" fill="#b4b4b4" d="M 427.5,48.5 C 428.54,52.7994 428.54,56.7994 427.5,60.5C 426.167,56.5 426.167,52.5 427.5,48.5 Z"/></g>
<g><path style="opacity:1" fill="#eeeeee" d="M 127.5,52.5 C 130.833,52.5 134.167,52.5 137.5,52.5C 142.5,52.5 147.5,52.5 152.5,52.5C 152.453,55.9686 151.787,59.302 150.5,62.5C 148.701,67.7333 147.201,73.0667 146,78.5C 145.375,80.7071 144.541,82.0404 143.5,82.5C 143.672,81.5084 143.338,80.8417 142.5,80.5C 141.442,71.2783 139.608,62.2783 137,53.5C 137.611,62.9387 139.111,72.272 141.5,81.5C 141.607,83.3786 141.107,83.7119 140,82.5C 134.827,74.8142 129.66,67.1476 124.5,59.5C 127.151,60.4897 129.817,61.4897 132.5,62.5C 133.167,62.1667 133.833,61.8333 134.5,61.5C 130.484,59.8237 126.484,58.1571 122.5,56.5C 121.859,55.5178 121.193,54.5178 120.5,53.5C 122.743,52.5258 125.076,52.1924 127.5,52.5 Z"/></g>
<g><path style="opacity:1" fill="#adadad" d="M 125.5,54.5 C 125.56,53.9569 125.893,53.6236 126.5,53.5C 129.209,54.6703 131.875,55.837 134.5,57C 131.124,57.4855 128.124,56.6521 125.5,54.5 Z"/></g>
<g><path style="opacity:1" fill="#b5b5b5" d="M 154.5,52.5 C 158.634,51.5151 162.968,51.1818 167.5,51.5C 167.737,52.791 167.404,53.791 166.5,54.5C 162.267,56.4508 157.934,58.1175 153.5,59.5C 153.232,57.901 153.566,56.5676 154.5,55.5C 154.369,56.3764 154.702,57.0431 155.5,57.5C 158.5,56 161.5,54.5 164.5,53C 161.183,52.5017 157.85,52.335 154.5,52.5 Z"/></g>
<g><path style="opacity:1" fill="#f4f4f4" d="M 166.5,54.5 C 166.068,55.7095 165.401,56.7095 164.5,57.5C 160.282,59.0488 156.282,61.0488 152.5,63.5C 152.433,62.0413 152.766,60.7079 153.5,59.5C 157.934,58.1175 162.267,56.4508 166.5,54.5 Z"/></g>
<g><path style="opacity:1" fill="#a6a6a6" d="M 305.5,53.5 C 305.833,53.5 306.167,53.5 306.5,53.5C 307.167,54.8333 308.167,55.8333 309.5,56.5C 310.925,57.922 311.925,59.5887 312.5,61.5C 310.167,59.5 307.833,57.5 305.5,55.5C 305.5,54.8333 305.5,54.1667 305.5,53.5 Z"/></g>
<g><path style="opacity:1" fill="#cecece" d="M 18.5,53.5 C 22.481,56.888 26.8144,59.5547 31.5,61.5C 28.0119,61.2946 24.6786,60.4613 21.5,59C 19.84,57.5123 18.84,55.679 18.5,53.5 Z"/></g>
<g><path style="opacity:1" fill="#636363" d="M 137.5,52.5 C 143.067,51.196 148.734,51.196 154.5,52.5C 154.5,53.5 154.5,54.5 154.5,55.5C 153.566,56.5676 153.232,57.901 153.5,59.5C 152.766,60.7079 152.433,62.0413 152.5,63.5C 152.5,64.1667 152.5,64.8333 152.5,65.5C 152.167,65.5 151.833,65.5 151.5,65.5C 151.737,64.209 151.404,63.209 150.5,62.5C 151.787,59.302 152.453,55.9686 152.5,52.5C 147.5,52.5 142.5,52.5 137.5,52.5 Z"/></g>
<g><path style="opacity:0.173" fill="#939393" d="M 193.5,57.5 C 194.89,58.8993 195.89,60.5659 196.5,62.5C 194.273,61.5994 193.273,59.9328 193.5,57.5 Z"/></g>
<g><path style="opacity:1" fill="#696969" d="M 363.5,44.5 C 364.477,47.2869 364.81,50.2869 364.5,53.5C 366.292,53.634 367.958,53.3007 369.5,52.5C 376.167,51.8584 376.167,52.5251 369.5,54.5C 367.958,55.3007 366.292,55.634 364.5,55.5C 364.351,56.552 364.517,57.552 365,58.5C 367.274,57.1888 369.44,57.1888 371.5,58.5C 370.035,60.5463 370.368,62.3796 372.5,64C 370.963,65.1096 370.297,66.6096 370.5,68.5C 373.896,68.6329 374.229,69.6329 371.5,71.5C 372.602,72.1757 373.602,72.8423 374.5,73.5C 371.493,75.1745 368.16,75.8412 364.5,75.5C 364.5,76.5 364.5,77.5 364.5,78.5C 363.505,67.3456 363.172,56.0123 363.5,44.5 Z"/></g>
<g><path style="opacity:1" fill="#b5b5b5" d="M 122.5,56.5 C 126.484,58.1571 130.484,59.8237 134.5,61.5C 133.833,61.8333 133.167,62.1667 132.5,62.5C 129.817,61.4897 127.151,60.4897 124.5,59.5C 123.599,58.7095 122.932,57.7095 122.5,56.5 Z"/></g>
<g><path style="opacity:0.169" fill="#a0a0a0" d="M 260.5,58.5 C 260.25,60.674 259.25,62.3406 257.5,63.5C 257.75,61.326 258.75,59.6594 260.5,58.5 Z"/></g>
<g><path style="opacity:1" fill="#707070" d="M 37.5,62.5 C 39.1992,62.3398 40.8659,62.5065 42.5,63C 40.8807,63.2355 39.8807,64.0689 39.5,65.5C 39.1667,65.5 38.8333,65.5 38.5,65.5C 37.8902,64.609 37.5569,63.609 37.5,62.5 Z"/></g>
<g><path style="opacity:0.943" fill="#4f4f4f" d="M 121.5,42.5 C 122.404,43.209 122.737,44.209 122.5,45.5C 121.035,46.4057 120.035,47.739 119.5,49.5C 119.957,50.2975 120.624,50.6309 121.5,50.5C 123.5,51.1667 125.5,51.8333 127.5,52.5C 125.076,52.1924 122.743,52.5258 120.5,53.5C 121.193,54.5178 121.859,55.5178 122.5,56.5C 122.932,57.7095 123.599,58.7095 124.5,59.5C 129.66,67.1476 134.827,74.8142 140,82.5C 141.107,83.7119 141.607,83.3786 141.5,81.5C 142.167,81.5 142.5,81.1667 142.5,80.5C 143.338,80.8417 143.672,81.5084 143.5,82.5C 142.463,83.9303 141.796,85.597 141.5,87.5C 132.949,76.7554 125.116,65.4221 118,53.5C 116.906,49.0411 118.073,45.3744 121.5,42.5 Z"/></g>
<g><path style="opacity:1" fill="#343434" d="M 431.5,36.5 C 432.295,40.4764 432.962,44.4764 433.5,48.5C 432.549,49.9187 432.216,51.5853 432.5,53.5C 431.549,52.0813 431.216,50.4147 431.5,48.5C 430.448,48.3505 429.448,48.5172 428.5,49C 429.293,50.0852 429.96,51.2519 430.5,52.5C 428.811,55.6499 429.144,58.3165 431.5,60.5C 431.5,60.8333 431.5,61.1667 431.5,61.5C 430.069,61.8807 429.236,62.8807 429,64.5C 427.667,63.1667 426.333,63.1667 425,64.5C 425.499,63.1058 426.333,61.7725 427.5,60.5C 428.54,56.7994 428.54,52.7994 427.5,48.5C 427.5,48.1667 427.5,47.8333 427.5,47.5C 426.833,46.8333 426.167,46.1667 425.5,45.5C 426.496,45.5858 427.329,45.2524 428,44.5C 428.483,45.448 428.649,46.448 428.5,47.5C 429.675,47.719 430.675,47.3857 431.5,46.5C 430.754,45.2638 430.421,43.9305 430.5,42.5C 429.209,42.7373 428.209,42.404 427.5,41.5C 430.718,41.3491 431.051,40.5158 428.5,39C 428.728,38.6012 429.062,38.4346 429.5,38.5C 430.167,37.8333 430.833,37.1667 431.5,36.5 Z"/></g>
<g><path style="opacity:1" fill="#313131" d="M 142.5,80.5 C 142.5,81.1667 142.167,81.5 141.5,81.5C 139.111,72.272 137.611,62.9387 137,53.5C 139.608,62.2783 141.442,71.2783 142.5,80.5 Z"/></g>
<g><path style="opacity:1" fill="#292929" d="M 150.5,62.5 C 151.404,63.209 151.737,64.209 151.5,65.5C 149.431,71.3758 147.764,77.3758 146.5,83.5C 145.903,83.7352 145.57,84.2352 145.5,85C 146.056,86.0111 146.722,86.8444 147.5,87.5C 147.5,88.1667 147.167,88.5 146.5,88.5C 144.833,89.8333 143.167,89.8333 141.5,88.5C 141.5,88.1667 141.5,87.8333 141.5,87.5C 141.796,85.597 142.463,83.9303 143.5,82.5C 144.541,82.0404 145.375,80.7071 146,78.5C 147.201,73.0667 148.701,67.7333 150.5,62.5 Z"/></g>
<g><path style="opacity:1" fill="#a4a4a4" d="M 164.5,57.5 C 164.672,58.4916 164.338,59.1583 163.5,59.5C 163.565,59.0618 163.399,58.7284 163,58.5C 159.872,61.4736 156.372,63.8069 152.5,65.5C 152.5,64.8333 152.5,64.1667 152.5,63.5C 156.282,61.0488 160.282,59.0488 164.5,57.5 Z"/></g>
<g><path style="opacity:1" fill="#5a5a5a" d="M 167.5,51.5 C 168.167,52.1667 168.833,52.8333 169.5,53.5C 164.173,61.4784 159.34,69.8117 155,78.5C 152.958,81.9405 150.458,84.9405 147.5,87.5C 146.722,86.8444 146.056,86.0111 145.5,85C 145.57,84.2352 145.903,83.7352 146.5,83.5C 146.369,84.2389 146.536,84.9056 147,85.5C 148,84.5 149,83.5 150,82.5C 153.499,74.1862 157.999,66.5195 163.5,59.5C 164.338,59.1583 164.672,58.4916 164.5,57.5C 165.401,56.7095 166.068,55.7095 166.5,54.5C 167.404,53.791 167.737,52.791 167.5,51.5 Z"/></g>
<g><path style="opacity:0.043" fill="#8f8f8f" d="M 317.5,63.5 C 320.833,64.8333 323.167,67.1667 324.5,70.5C 321.833,68.5 319.5,66.1667 317.5,63.5 Z"/></g>
<g><path style="opacity:1" fill="#838383" d="M 400.5,62.5 C 401.713,63.4971 401.546,64.4971 400,65.5C 399.53,64.4232 399.697,63.4232 400.5,62.5 Z"/></g>
<g><path style="opacity:1" fill="#818181" d="M 427.5,47.5 C 427.5,47.8333 427.5,48.1667 427.5,48.5C 426.167,52.5 426.167,56.5 427.5,60.5C 426.333,61.7725 425.499,63.1058 425,64.5C 426.333,63.1667 427.667,63.1667 429,64.5C 429.236,62.8807 430.069,61.8807 431.5,61.5C 431.799,63.604 431.466,65.604 430.5,67.5C 428.781,64.9516 427.448,65.285 426.5,68.5C 425.808,67.9747 425.308,67.3081 425,66.5C 424.333,69.8333 424.333,73.1667 425,76.5C 425.186,74.0995 425.686,71.7662 426.5,69.5C 426.581,71.6329 427.081,73.6329 428,75.5C 428.826,73.5946 429.993,73.2612 431.5,74.5C 430.691,76.0709 430.357,77.7376 430.5,79.5C 428.194,79.0074 425.861,78.6741 423.5,78.5C 422.791,77.596 421.791,77.2627 420.5,77.5C 420.5,76.1667 420.5,74.8333 420.5,73.5C 422.048,73.1788 422.715,72.1788 422.5,70.5C 421.127,70.6567 419.793,70.49 418.5,70C 421.876,69.6929 423.21,67.8595 422.5,64.5C 414.5,64.1667 414.5,63.8333 422.5,63.5C 422.5,62.1667 422.5,60.8333 422.5,59.5C 420.143,59.6633 417.81,59.4966 415.5,59C 418.817,58.5017 422.15,58.335 425.5,58.5C 425.037,55.5176 424.704,52.5176 424.5,49.5C 421.128,50.4015 417.795,50.4015 414.5,49.5C 418.838,48.7131 423.172,48.0464 427.5,47.5 Z"/></g>
<g><path style="opacity:0.69" fill="#838383" d="M 36.5,65.5 C 37.1667,65.5 37.8333,65.5 38.5,65.5C 38.8333,66.1667 39.1667,66.8333 39.5,67.5C 37.9731,67.573 36.9731,66.9063 36.5,65.5 Z"/></g>
<g><path style="opacity:0.3" fill="#797979" d="M 69.5,63.5 C 68.0077,66.3231 65.6743,67.9898 62.5,68.5C 64.5496,66.4525 66.883,64.7859 69.5,63.5 Z"/></g>
<g><path style="opacity:1" fill="#1b1b1b" d="M 38.5,65.5 C 38.8333,65.5 39.1667,65.5 39.5,65.5C 41.0858,66.1481 42.7525,66.6481 44.5,67C 43.434,68.159 43.7673,68.9924 45.5,69.5C 45.3284,70.4916 45.6618,71.1583 46.5,71.5C 47.3686,73.717 47.702,76.0504 47.5,78.5C 47.6716,79.4916 47.3382,80.1583 46.5,80.5C 45.6618,80.1583 45.3284,79.4916 45.5,78.5C 46.1386,77.9032 46.472,77.0698 46.5,76C 46.6134,74.3009 45.9468,73.1342 44.5,72.5C 44.5,72.1667 44.5,71.8333 44.5,71.5C 43.4154,69.4131 41.7488,68.0798 39.5,67.5C 39.1667,66.8333 38.8333,66.1667 38.5,65.5 Z"/></g>
<g><path style="opacity:0.502" fill="#878787" d="M 39.5,67.5 C 41.7488,68.0798 43.4154,69.4131 44.5,71.5C 42.2512,70.9202 40.5846,69.5869 39.5,67.5 Z"/></g>
<g><path style="opacity:1" fill="#939393" d="M 56.5,68.5 C 56.5,70.5 55.5,71.5 53.5,71.5C 51.1667,70.1667 48.8333,70.1667 46.5,71.5C 45.6618,71.1583 45.3284,70.4916 45.5,69.5C 49.1981,69.4476 52.8648,69.1143 56.5,68.5 Z"/></g>
<g><path style="opacity:1" fill="#555555" d="M 305.5,55.5 C 307.833,57.5 310.167,59.5 312.5,61.5C 314.5,62.1667 315.833,63.5 316.5,65.5C 318.144,68.0045 319.644,70.6711 321,73.5C 321.749,74.635 321.583,75.635 320.5,76.5C 316.371,74.9611 313.371,72.2945 311.5,68.5C 313.837,70.6664 316.337,72.6664 319,74.5C 319.167,74.1667 319.333,73.8333 319.5,73.5C 315.168,67.1764 310.501,61.1764 305.5,55.5 Z"/></g>
<g><path style="opacity:1" fill="#dadada" d="M 163.5,59.5 C 157.999,66.5195 153.499,74.1862 150,82.5C 149,83.5 148,84.5 147,85.5C 146.536,84.9056 146.369,84.2389 146.5,83.5C 147.764,77.3758 149.431,71.3758 151.5,65.5C 151.833,65.5 152.167,65.5 152.5,65.5C 156.372,63.8069 159.872,61.4736 163,58.5C 163.399,58.7284 163.565,59.0618 163.5,59.5 Z"/></g>
<g><path style="opacity:1" fill="#aeaeae" d="M 298.5,60.5 C 301.446,62.457 303.779,65.1237 305.5,68.5C 301.813,71.8554 298.147,75.1887 294.5,78.5C 294.062,78.5654 293.728,78.3988 293.5,78C 294.833,76.6667 296.167,75.3333 297.5,74C 296.833,73.6667 296.167,73.3333 295.5,73C 296.5,72 297.5,71 298.5,70C 296.109,69.3086 296.109,68.3086 298.5,67C 297.88,64.8982 296.88,64.0649 295.5,64.5C 296.5,63.1667 297.5,61.8333 298.5,60.5 Z"/></g>
<g><path style="opacity:1" fill="#8d8d8d" d="M 428.5,68.5 C 429.5,68.5 430.5,68.5 431.5,68.5C 431.5,69.8333 431.5,71.1667 431.5,72.5C 430.5,72.5 429.5,72.5 428.5,72.5C 428.5,71.1667 428.5,69.8333 428.5,68.5 Z"/></g>
<g><path style="opacity:1" fill="#424242" d="M 196.5,62.5 C 198.736,63.3891 200.736,64.7224 202.5,66.5C 203.107,66.3764 203.44,66.0431 203.5,65.5C 206.332,66.4205 208.665,68.0872 210.5,70.5C 203.89,74.4879 198.557,79.1546 194.5,84.5C 195.5,85.1667 196.5,85.8333 197.5,86.5C 195.236,87.2186 192.903,87.552 190.5,87.5C 189.737,86.7321 188.737,86.2321 187.5,86C 188.416,85.7216 189.082,85.2216 189.5,84.5C 194.681,79.1567 200.348,74.3233 206.5,70C 202.203,68.6949 198.869,66.1949 196.5,62.5 Z"/></g>
<g><path style="opacity:0.329" fill="#949494" d="M 44.5,72.5 C 45.9468,73.1342 46.6134,74.3009 46.5,76C 46.472,77.0698 46.1386,77.9032 45.5,78.5C 45.4828,76.4352 45.1495,74.4352 44.5,72.5 Z"/></g>
<g><path style="opacity:1" fill="#c6c6c6" d="M 53.5,71.5 C 50.9028,71.7208 50.9028,72.2208 53.5,73C 52.0925,76.6516 52.4258,80.1516 54.5,83.5C 53.1779,83.33 52.0113,83.6634 51,84.5C 51.3526,82.7722 51.5193,81.1055 51.5,79.5C 50.3112,78.5713 48.9778,78.238 47.5,78.5C 47.702,76.0504 47.3686,73.717 46.5,71.5C 48.8333,70.1667 51.1667,70.1667 53.5,71.5 Z"/></g>
<g><path style="opacity:0.304" fill="#a1a1a1" d="M 360.5,37.5 C 361.167,37.5 361.5,37.8333 361.5,38.5C 361.628,53.1724 361.962,67.8391 362.5,82.5C 367.167,82.5 371.833,82.5 376.5,82.5C 378.167,83.1667 379.833,83.8333 381.5,84.5C 374.814,84.4728 368.148,84.1395 361.5,83.5C 360.564,68.1953 360.231,52.862 360.5,37.5 Z"/></g>
<g><path style="opacity:1" fill="#c1c1c1" d="M 374.5,73.5 C 375.338,73.8417 375.672,74.5084 375.5,75.5C 375.833,76.8333 376.167,78.1667 376.5,79.5C 375.5,79.5 374.5,79.5 373.5,79.5C 370.903,79.2792 370.903,78.7792 373.5,78C 371.5,77.3333 369.5,77.3333 367.5,78C 370.063,78.763 370.063,79.263 367.5,79.5C 366.416,79.315 365.416,78.9817 364.5,78.5C 364.5,77.5 364.5,76.5 364.5,75.5C 368.16,75.8412 371.493,75.1745 374.5,73.5 Z"/></g>
<g><path style="opacity:1" fill="#909090" d="M 386.5,75.5 C 392.188,76.716 397.855,76.716 403.5,75.5C 405.821,75.6827 408.154,76.016 410.5,76.5C 406.582,77.5246 406.582,78.5246 410.5,79.5C 399.163,79.499 387.829,79.499 376.5,79.5C 376.167,78.1667 375.833,76.8333 375.5,75.5C 379.355,74.686 383.022,74.686 386.5,75.5 Z"/></g>
<g><path style="opacity:1" fill="#595959" d="M 420.5,73.5 C 420.5,74.8333 420.5,76.1667 420.5,77.5C 421.791,77.2627 422.791,77.596 423.5,78.5C 420.904,79.2653 418.237,79.5987 415.5,79.5C 414.5,76.8333 413.5,76.8333 412.5,79.5C 411.833,79.5 411.167,79.5 410.5,79.5C 406.582,78.5246 406.582,77.5246 410.5,76.5C 413.482,76.1044 416.149,76.7711 418.5,78.5C 419.17,76.7086 419.837,75.0419 420.5,73.5 Z"/></g>
<g><path style="opacity:1" fill="#2e2e2e" d="M 255.5,63.5 C 255.5,64.1667 255.833,64.5 256.5,64.5C 253.741,70.412 249.074,73.912 242.5,75C 237.5,75.3333 232.5,75.6667 227.5,76C 217.676,79.997 207.676,83.497 197.5,86.5C 196.5,85.8333 195.5,85.1667 194.5,84.5C 204.7,80.3769 215.033,76.5435 225.5,73C 225.167,72.6667 224.833,72.3333 224.5,72C 235.935,73.3573 246.269,70.5239 255.5,63.5 Z"/></g>
<g><path style="opacity:0.941" fill="#3f3f3f" d="M 309.5,56.5 C 309.833,56.5 310.167,56.5 310.5,56.5C 312.03,57.2112 313.363,58.2112 314.5,59.5C 315.488,60.795 316.488,62.1283 317.5,63.5C 319.5,66.1667 321.833,68.5 324.5,70.5C 330.09,75.1231 330.757,80.2898 326.5,86C 324.613,86.7796 322.946,86.6129 321.5,85.5C 321.027,84.0937 320.027,83.427 318.5,83.5C 314.161,79.8273 310.161,75.8273 306.5,71.5C 304.814,72.8569 303.148,74.1902 301.5,75.5C 299.973,75.427 298.973,76.0937 298.5,77.5C 295.704,80.7974 292.704,83.9641 289.5,87C 281.49,87.6583 278.657,84.1583 281,76.5C 284.036,73.2956 287.203,70.2956 290.5,67.5C 291.458,67.0472 292.292,66.3805 293,65.5C 293.399,65.7284 293.565,66.0618 293.5,66.5C 292.358,69.2594 291.024,71.9261 289.5,74.5C 288.778,74.0825 288.278,73.4158 288,72.5C 285.628,74.7032 283.461,77.0365 281.5,79.5C 281.916,84.1874 284.249,85.5208 288.5,83.5C 290.909,82.2993 292.909,80.6326 294.5,78.5C 298.147,75.1887 301.813,71.8554 305.5,68.5C 303.779,65.1237 301.446,62.457 298.5,60.5C 298.5,59.5 298.5,58.5 298.5,57.5C 300.167,58.8333 301.833,60.1667 303.5,61.5C 306.755,66.6022 310.255,71.6022 314,76.5C 316.79,80.1258 320.29,82.7925 324.5,84.5C 325.107,84.3764 325.44,84.0431 325.5,83.5C 327.377,82.3409 327.877,80.6742 327,78.5C 324.801,73.1326 321.301,68.7993 316.5,65.5C 315.833,63.5 314.5,62.1667 312.5,61.5C 311.925,59.5887 310.925,57.922 309.5,56.5 Z"/></g>
<g><path style="opacity:0.02" fill="#989898" d="M 301.5,75.5 C 301.027,76.9063 300.027,77.573 298.5,77.5C 298.973,76.0937 299.973,75.427 301.5,75.5 Z"/></g>
<g><path style="opacity:1" fill="#d9d9d9" d="M 303.5,61.5 C 305.845,64.1769 308.512,66.5103 311.5,68.5C 313.371,72.2945 316.371,74.9611 320.5,76.5C 321.583,75.635 321.749,74.635 321,73.5C 319.644,70.6711 318.144,68.0045 316.5,65.5C 321.301,68.7993 324.801,73.1326 327,78.5C 327.877,80.6742 327.377,82.3409 325.5,83.5C 325.44,84.0431 325.107,84.3764 324.5,84.5C 320.29,82.7925 316.79,80.1258 314,76.5C 310.255,71.6022 306.755,66.6022 303.5,61.5 Z"/></g>
<g><path style="opacity:1" fill="#e7e7e7" d="M 293.5,66.5 C 294.647,70.1656 293.48,73.1656 290,75.5C 289.601,75.2716 289.435,74.9382 289.5,74.5C 291.024,71.9261 292.358,69.2594 293.5,66.5 Z"/></g>
<g><path style="opacity:1" fill="#555555" d="M 303.5,59.5 C 306.903,61.8998 309.57,64.8998 311.5,68.5C 308.512,66.5103 305.845,64.1769 303.5,61.5C 303.5,60.8333 303.5,60.1667 303.5,59.5 Z"/></g>
<g><path style="opacity:1" fill="#575757" d="M 373.5,79.5 C 372.207,80.1582 370.707,80.4915 369,80.5C 367.014,80.4313 365.514,79.7647 364.5,78.5C 365.416,78.9817 366.416,79.315 367.5,79.5C 370.063,79.263 370.063,78.763 367.5,78C 369.5,77.3333 371.5,77.3333 373.5,78C 370.903,78.7792 370.903,79.2792 373.5,79.5 Z"/></g>
<g><path style="opacity:1" fill="#868686" d="M 294.5,62.5 C 294.328,63.4916 294.662,64.1583 295.5,64.5C 296.88,64.0649 297.88,64.8982 298.5,67C 296.109,68.3086 296.109,69.3086 298.5,70C 297.5,71 296.5,72 295.5,73C 296.167,73.3333 296.833,73.6667 297.5,74C 296.167,75.3333 294.833,76.6667 293.5,78C 293.728,78.3988 294.062,78.5654 294.5,78.5C 292.909,80.6326 290.909,82.2993 288.5,83.5C 288.389,82.8826 288.056,82.3826 287.5,82C 289.833,79.6667 292.167,77.3333 294.5,75C 290.886,76.5778 287.719,79.0778 285,82.5C 284.578,80.5743 283.411,79.5743 281.5,79.5C 283.461,77.0365 285.628,74.7032 288,72.5C 288.278,73.4158 288.778,74.0825 289.5,74.5C 289.435,74.9382 289.601,75.2716 290,75.5C 293.48,73.1656 294.647,70.1656 293.5,66.5C 293.565,66.0618 293.399,65.7284 293,65.5C 292.292,66.3805 291.458,67.0472 290.5,67.5C 291.08,65.2512 292.413,63.5846 294.5,62.5 Z"/></g>
<g><path style="opacity:1" fill="#d4d4d4" d="M 415.5,79.5 C 414.5,79.5 413.5,79.5 412.5,79.5C 413.5,76.8333 414.5,76.8333 415.5,79.5 Z"/></g>
<g><path style="opacity:0.153" fill="#8f8f8f" d="M 55.5,80.5 C 59.2066,81.5106 62.8733,82.6773 66.5,84C 69.8893,86.3215 70.2226,88.8215 67.5,91.5C 67.8957,88.9556 67.229,86.7889 65.5,85C 61.7701,84.0892 58.4368,82.5892 55.5,80.5 Z"/></g>
<g><path style="opacity:1" fill="#636363" d="M 325.5,83.5 C 323.086,82.5944 322.253,80.9278 323,78.5C 324.094,80.0779 324.928,81.7446 325.5,83.5 Z"/></g>
<g><path style="opacity:1" fill="#e8e8e8" d="M 288.5,83.5 C 284.249,85.5208 281.916,84.1874 281.5,79.5C 283.411,79.5743 284.578,80.5743 285,82.5C 287.719,79.0778 290.886,76.5778 294.5,75C 292.167,77.3333 289.833,79.6667 287.5,82C 288.056,82.3826 288.389,82.8826 288.5,83.5 Z"/></g>
<g><path style="opacity:1" fill="#535353" d="M 376.5,82.5 C 388.833,82.5 401.167,82.5 413.5,82.5C 403.167,83.1667 392.833,83.8333 382.5,84.5C 382.167,84.5 381.833,84.5 381.5,84.5C 379.833,83.8333 378.167,83.1667 376.5,82.5 Z"/></g>
<g><path style="opacity:0.345" fill="#969696" d="M 318.5,83.5 C 320.027,83.427 321.027,84.0937 321.5,85.5C 319.973,85.573 318.973,84.9063 318.5,83.5 Z"/></g>
<g><path style="opacity:0.337" fill="#858585" d="M 189.5,84.5 C 189.082,85.2216 188.416,85.7216 187.5,86C 188.737,86.2321 189.737,86.7321 190.5,87.5C 189.167,87.5 187.833,87.5 186.5,87.5C 186.5,86.5 186.5,85.5 186.5,84.5C 187.5,84.5 188.5,84.5 189.5,84.5 Z"/></g>
<g><path style="opacity:1" fill="#e9e9e9" d="M 47.5,78.5 C 48.9778,78.238 50.3112,78.5713 51.5,79.5C 51.5193,81.1055 51.3526,82.7722 51,84.5C 52.0113,83.6634 53.1779,83.33 54.5,83.5C 55.1667,83.5 55.5,83.8333 55.5,84.5C 52.5196,85.2655 49.5196,86.0989 46.5,87C 49.8166,87.7809 52.8166,87.2809 55.5,85.5C 58.5711,84.3392 61.5711,84.6726 64.5,86.5C 65.6139,87.723 65.7805,89.0563 65,90.5C 60.1902,93.1017 55.0236,94.1017 49.5,93.5C 53.1015,92.5088 56.7681,91.3422 60.5,90C 60.8333,89.6667 61.1667,89.3333 61.5,89C 60,88.5 58.5,88 57,87.5C 50.9567,90.0278 44.9567,90.0278 39,87.5C 38.5,87.6667 38,87.8333 37.5,88C 38.3279,88.9147 39.3279,89.5814 40.5,90C 44.5,90.3333 48.5,90.6667 52.5,91C 47.0321,92.9115 41.6988,92.7448 36.5,90.5C 36.1667,90.6667 35.8333,90.8333 35.5,91C 36.5707,91.8518 37.5707,92.6851 38.5,93.5C 36.0733,93.477 33.74,92.977 31.5,92C 30.4829,90.9505 30.3162,89.7839 31,88.5C 35.8468,86.0242 41.0134,84.3575 46.5,83.5C 46.5,82.5 46.5,81.5 46.5,80.5C 47.3382,80.1583 47.6716,79.4916 47.5,78.5 Z"/></g>
<g><path style="opacity:1" fill="#7b7b7b" d="M 55.5,84.5 C 55.5,84.8333 55.5,85.1667 55.5,85.5C 52.8166,87.2809 49.8166,87.7809 46.5,87C 49.5196,86.0989 52.5196,85.2655 55.5,84.5 Z"/></g>
<g><path style="opacity:1" fill="#7b7b7b" d="M 49.5,93.5 C 46.6946,94.3195 43.6946,94.8195 40.5,95C 41.4158,95.2784 42.0825,95.7784 42.5,96.5C 41.0413,96.5674 39.7079,96.2341 38.5,95.5C 38.5,94.8333 38.5,94.1667 38.5,93.5C 37.5707,92.6851 36.5707,91.8518 35.5,91C 35.8333,90.8333 36.1667,90.6667 36.5,90.5C 41.6988,92.7448 47.0321,92.9115 52.5,91C 48.5,90.6667 44.5,90.3333 40.5,90C 39.3279,89.5814 38.3279,88.9147 37.5,88C 38,87.8333 38.5,87.6667 39,87.5C 44.9567,90.0278 50.9567,90.0278 57,87.5C 58.5,88 60,88.5 61.5,89C 61.1667,89.3333 60.8333,89.6667 60.5,90C 56.7681,91.3422 53.1015,92.5088 49.5,93.5 Z"/></g>
<g><path style="opacity:0.024" fill="#b6b6b6" d="M 31.5,85.5 C 28.1382,87.8823 27.8049,90.549 30.5,93.5C 28.2776,93.4413 27.2776,92.2747 27.5,90C 27.6171,87.3844 28.9504,85.8844 31.5,85.5 Z"/></g>
<g><path style="opacity:0.902" fill="#818181" d="M 141.5,88.5 C 143.167,89.8333 144.833,89.8333 146.5,88.5C 146.209,89.6491 145.376,90.3158 144,90.5C 142.624,90.3158 141.791,89.6491 141.5,88.5 Z"/></g>
<g><path style="opacity:1" fill="#3f3f3f" d="M 45.5,78.5 C 45.3284,79.4916 45.6618,80.1583 46.5,80.5C 46.5,81.5 46.5,82.5 46.5,83.5C 41.0134,84.3575 35.8468,86.0242 31,88.5C 30.3162,89.7839 30.4829,90.9505 31.5,92C 33.74,92.977 36.0733,93.477 38.5,93.5C 38.5,94.1667 38.5,94.8333 38.5,95.5C 35.5049,95.7062 32.8383,95.0395 30.5,93.5C 27.8049,90.549 28.1382,87.8823 31.5,85.5C 33.8766,84.1127 36.5432,83.2794 39.5,83C 41.9676,82.0207 43.9676,80.5207 45.5,78.5 Z"/></g>
</svg>
